<?xml version="1.0" standalone="no"?>
<!DOCTYPE svg PUBLIC "-//W3C//DTD SVG 20010904//EN"
 "http://www.w3.org/TR/2001/REC-SVG-20010904/DTD/svg10.dtd">
<svg version="1.0" xmlns="http://www.w3.org/2000/svg"
 width="288.000000pt" height="288.000000pt" viewBox="0 0 288.000000 288.000000"
 preserveAspectRatio="xMidYMid meet">

<g transform="translate(0.000000,288.000000) scale(0.100000,-0.100000)"
fill="#000000" stroke="none">
<path d="M565 1991 c-6 -6 -41 -27 -80 -49 -121 -67 -336 -192 -357 -206 -20
-14 -20 -14 4 -29 24 -16 310 -181 388 -225 25 -13 51 -29 58 -35 9 -7 12 -77
12 -288 0 -154 2 -279 6 -279 6 0 388 219 447 256 l37 24 0 280 0 279 -122 72
c-68 39 -154 89 -193 111 -38 23 -92 54 -118 69 -52 31 -67 35 -82 20z m150
-89 c154 -82 280 -161 280 -177 0 -11 -57 -50 -170 -114 -167 -95 -171 -97
-235 -97 -64 0 -68 2 -235 97 -112 64 -170 103 -170 114 0 15 38 40 274 175
57 32 71 36 130 35 54 -1 77 -7 126 -33z m335 -453 c0 -200 0 -201 -25 -231
-14 -16 -25 -38 -25 -48 0 -13 -22 -32 -67 -58 -38 -22 -118 -69 -180 -105
-61 -36 -114 -63 -117 -59 -3 3 -6 99 -6 213 0 171 2 208 14 212 8 3 20 24 27
46 6 22 19 43 28 46 16 6 86 46 236 136 122 74 115 84 115 -152z"/>
<path d="M2415 1716 c-65 -28 -92 -81 -85 -166 4 -53 58 -97 140 -115 19 -4
63 -16 98 -27 56 -17 65 -24 78 -54 19 -46 4 -107 -33 -132 -35 -22 -127 -21
-207 2 -48 14 -60 15 -67 4 -29 -45 24 -70 156 -75 90 -4 104 -2 144 19 61 32
83 75 79 155 -3 49 -9 68 -28 89 -35 36 -47 41 -158 69 -114 28 -148 56 -138
109 9 43 36 67 87 77 45 8 148 -4 181 -22 15 -8 20 -5 28 17 12 31 6 38 -50
54 -50 14 -189 12 -225 -4z"/>
<path d="M1310 1435 l0 -285 30 0 30 0 0 285 0 285 -30 0 -30 0 0 -285z"/>
<path d="M1500 1434 l0 -285 33 3 32 3 3 120 3 120 92 1 c99 0 133 12 177 58
33 36 41 143 15 193 -31 57 -81 73 -228 73 l-127 0 0 -286z m255 216 c68 -26
65 -148 -5 -182 -24 -12 -59 -18 -107 -18 l-73 0 0 105 0 105 79 0 c44 0 91
-4 106 -10z"/>
<path d="M1950 1435 l0 -285 30 0 29 0 3 133 3 132 118 3 c117 3 117 3 117 27
0 24 0 24 -117 27 l-118 3 -3 92 -3 92 123 3 123 3 3 28 3 27 -155 0 -156 0 0
-285z"/>
</g>
</svg>
